<?xml version="1.0" standalone="no"?><!DOCTYPE svg PUBLIC "-//W3C//DTD SVG 1.1//EN" "http://www.w3.org/Graphics/SVG/1.1/DTD/svg11.dtd"><svg t="1548660195123" class="icon" style="" viewBox="0 0 1024 1024" version="1.1" xmlns="http://www.w3.org/2000/svg" p-id="2442" xmlns:xlink="http://www.w3.org/1999/xlink" width="128" height="128"><defs><style type="text/css"></style></defs><path d="M696.58 314.59c50.856-71.79 44.13-171.872-20.176-236.176-71.818-71.818-188.254-71.818-260.072 0l-39.576 39.576-39.576-39.576c-71.818-71.818-188.254-71.818-260.072 0s-71.818 188.254 0 260.072l299.65 299.65 173.826-173.826" fill="#FA004B" p-id="2443"></path><path d="M949.398 335.418c-45.262-45.262-118.65-45.262-163.912 0l-24.942 24.942-24.942-24.942c-45.262-45.262-118.65-45.262-163.912 0s-45.262 118.65 0 163.912l188.856 188.856 188.856-188.856c45.26-45.264 45.26-118.65-0.004-163.912z" fill="#36C9A3" p-id="2444"></path><path d="M664.212 208.112h-31.216c0-43.704-35.032-80.002-80.816-80.002V96.894c62.432 0 112.032 50.866 112.032 111.218z" fill="#FFFFFF" p-id="2445"></path><path d="M998.954 417.374c0-35.13-13.68-68.154-38.52-92.996-24.84-24.838-57.866-38.518-92.994-38.518-35.13 0-68.154 13.68-92.996 38.518l-13.906 13.908-13.908-13.908a131.266 131.266 0 0 0-25.41-19.82c42.562-76.988 29.83-173.566-33.786-237.184-77.79-77.786-204.356-77.786-282.146 0l-28.538 28.54-28.538-28.54c-77.792-77.788-204.36-77.784-282.148 0-77.786 77.79-77.786 204.358 0 282.146l294.648 294.646v30.118h31.216v-29.256l153.282-153.28a131.614 131.614 0 0 0 15.436 18.618l182.994 182.99v41.282h31.216v-38.696l185.576-185.574c24.844-24.84 38.522-57.866 38.522-92.994z m-622.2 198.686L88.142 327.446c-65.616-65.614-65.616-172.38 0-237.996 65.618-65.616 172.384-65.616 237.998 0l50.614 50.61 50.614-50.61c65.616-65.616 172.38-65.616 237.996 0 54.304 54.302 64.684 137.072 27.242 202.366-45.12-13.918-96.306-3.082-131.956 32.564-37.312 37.312-47.442 91.646-30.452 138.234l-153.444 153.446z m383.788 50.05l-177.818-177.816c-39.104-39.106-39.104-102.734-0.002-141.84 19.554-19.554 45.234-29.33 70.92-29.33 25.682 0 51.37 9.778 70.918 29.33l35.98 35.978 35.98-35.978c39.104-39.108 102.734-39.104 141.836 0h0.002c18.944 18.942 29.376 44.128 29.376 70.918 0 26.788-10.432 51.976-29.378 70.918l-177.814 177.82z" fill="#232323" p-id="2446"></path><path d="M726.998 720.07h64.514v31.216h-64.514z" fill="#36C9A3" p-id="2447"></path><path d="M776.152 1024h-31.216v-39.978c0-21.83 17.762-39.594 39.594-39.594 13.438 0 24.37-10.932 24.37-24.37s-10.932-24.37-24.37-24.37h-39.978c-26.24 0-47.59-21.348-47.59-47.59s21.348-47.592 47.59-47.592a0.384 0.384 0 0 0 0.386-0.382v-31.982h31.216v31.982c0 17.424-14.176 31.6-31.602 31.6-9.028 0-16.372 7.344-16.372 16.374 0 9.028 7.344 16.372 16.372 16.372h39.978c30.65 0 55.586 24.936 55.586 55.586s-24.936 55.586-55.586 55.586a8.384 8.384 0 0 0-8.376 8.376V1024zM472.316 1024H441.1v-59.132c0-20.51-16.686-37.198-37.196-37.198h-43.142c-35.06 0-63.582-28.522-63.582-63.582s28.522-63.582 63.582-63.582h31.982c9.03 0 16.374-7.344 16.374-16.374 0-9.028-7.344-16.372-16.374-16.372-17.424 0-31.6-14.176-31.6-31.602v-31.98h31.216v31.98c0 0.212 0.17 0.386 0.382 0.386 26.24 0 47.592 21.348 47.592 47.59 0 26.24-21.35 47.592-47.592 47.592H360.76c-17.846 0-32.366 14.52-32.366 32.366s14.52 32.366 32.366 32.366h43.142c37.722 0 68.412 30.69 68.412 68.414V1024z" fill="#232323" p-id="2448"></path><path d="M936.062 416.226h-31.216c0-18.73-15.526-32.256-32.174-32.256v-31.216c35.378 0 63.39 28.092 63.39 63.472z" fill="#FFFFFF" p-id="2449"></path><path d="M42.302 511.958h31.216v49.948H42.302z" fill="#FA004B" p-id="2450"></path><path d="M215.042 928.182h31.216v47.866h-31.216z" fill="#36C9A3" p-id="2451"></path><path d="M616.7 944.832h31.216v47.866H616.7zM471.02 655.556h31.216v49.948H471.02z" fill="#FAEDD6" p-id="2452"></path><path d="M826.894 145.678h31.216v47.866h-31.216z" fill="#36C9A3" p-id="2453"></path><path d="M200.474 638.906h31.216v35.38h-31.216z" fill="#232323" p-id="2454"></path><path d="M90.174 416.226h31.216v33.298H90.174z" fill="#FAEDD6" p-id="2455"></path><path d="M523.048 591.04h31.216v33.298h-31.216z" fill="#232323" p-id="2456"></path><path d="M666.646 720.07h31.216v31.216h-31.216z" fill="#36C9A3" p-id="2457"></path><path d="M920.544 705.502h31.216v29.136h-31.216z" fill="#FA004B" p-id="2458"></path><path d="M856.028 767.936h31.216v31.216h-31.216z" fill="#232323" p-id="2459"></path><path d="M71.444 847.018H102.66v33.298H71.444z" fill="#FAEDD6" p-id="2460"></path><path d="M104.742 880.316h31.216v31.216H104.742z" fill="#FA004B" p-id="2461"></path><path d="M743.648 16.65h31.216v31.216h-31.216zM953.842 241.41h31.216v31.216h-31.216z" fill="#FAEDD6" p-id="2462"></path><path d="M102.874 775.122l-27.92-13.962 19.09-38.18a34.146 34.146 0 0 0-2.124-34.13c-12.964-19.444-14.524-44.506-4.074-65.412l19.092-38.182 27.92 13.962-19.09 38.18a34.146 34.146 0 0 0 2.124 34.13c12.964 19.446 14.524 44.51 4.072 65.414l-19.09 38.18z" fill="#36C9A3" p-id="2463"></path><path d="M566.616 887.06l-27.92-13.962 19.09-38.18a34.154 34.154 0 0 0-2.124-34.134c-12.964-19.442-14.524-44.504-4.07-65.408l19.09-38.18 27.92 13.962-19.09 38.18a34.146 34.146 0 0 0 2.124 34.13c12.964 19.448 14.524 44.512 4.07 65.412l-19.09 38.18z" fill="#FA004B" p-id="2464"></path><path d="M934.414 983.008l-27.92-13.962 19.09-38.18a34.15 34.15 0 0 0-2.124-34.132c-12.964-19.446-14.524-44.51-4.07-65.41l19.09-38.18 27.92 13.962-19.09 38.18a34.146 34.146 0 0 0 2.124 34.13c12.964 19.446 14.524 44.512 4.072 65.412l-19.092 38.18z" fill="#FAEDD6" p-id="2465"></path><path d="M918.426 231.422l-27.92-13.962 19.09-38.18a34.146 34.146 0 0 0-2.124-34.13c-12.964-19.446-14.524-44.51-4.072-65.412l19.09-38.182 27.92 13.962-19.09 38.18a34.15 34.15 0 0 0 2.124 34.132c12.964 19.444 14.524 44.506 4.072 65.412l-19.09 38.18z" fill="#FA004B" p-id="2466"></path><path d="M985.058 0h31.216v31.216h-31.216z" fill="#232323" p-id="2467"></path><path d="M344.072 657.636h64.514v31.216h-64.514z" fill="#FA004B" p-id="2468"></path></svg>