<?xml version="1.0" standalone="no"?><!DOCTYPE svg PUBLIC "-//W3C//DTD SVG 1.1//EN" "http://www.w3.org/Graphics/SVG/1.1/DTD/svg11.dtd"><svg t="1548571376263" class="icon" style="" viewBox="0 0 1024 1024" version="1.1" xmlns="http://www.w3.org/2000/svg" p-id="3188" xmlns:xlink="http://www.w3.org/1999/xlink" width="128" height="128"><defs><style type="text/css"></style></defs><path d="M512 781.216c127.072 0 230.4-94.688 230.4-211.072L742.4 222.016c0-116.384-103.328-211.04-230.4-211.04S281.6 105.632 281.6 222.016l0 348.16C281.6 686.56 384.928 781.216 512 781.216zM332.768 222.048c0-88.16 80.416-159.872 179.232-159.872s179.232 71.712 179.232 159.84l0 348.16c0 88.128-80.416 159.84-179.232 159.84s-179.232-71.712-179.232-159.84L332.768 222.048zM858.656 443.936c-14.144 0-25.6 11.456-25.6 25.6l0 86.304c0 154.496-110.4 277.504-268.416 299.136-7.968 1.088-14.976 5.856-18.88 12.896-3.936 7.008-4.32 15.488-1.056 22.848l31.488 71.104-125.216 0 31.968-70.976c3.328-7.36 2.976-15.84-0.928-22.912s-10.944-11.872-18.944-12.96c-160.256-21.952-272.16-144.96-272.16-299.136l0-86.304c0-14.144-11.488-25.6-25.6-25.6-14.144 0-25.6 11.456-25.6 25.6l0 86.304c0 169.504 114.784 306.688 283.072 343.904l-34.784 77.152c-3.552 7.936-2.88 17.12 1.856 24.416 4.736 7.296 12.832 11.712 21.504 11.712l204.192 0c8.672 0 16.736-4.384 21.472-11.648 4.736-7.264 5.44-16.416 1.952-24.352l-34.24-77.28c166.208-36.992 279.52-174.176 279.52-343.904l0-86.304C884.256 455.392 872.8 443.936 858.656 443.936zM511.968 425.664c46.048 0 83.488-38.848 83.488-86.624 0-47.808-37.472-86.688-83.488-86.688-45.984 0-83.424 38.88-83.424 86.688C428.544 386.816 465.952 425.664 511.968 425.664zM511.968 303.552c17.824 0 32.32 15.936 32.32 35.52 0 19.52-14.496 35.424-32.32 35.424-17.792 0-32.256-15.904-32.256-35.424C479.712 319.488 494.176 303.552 511.968 303.552z" p-id="3189" fill="#F56C6C"></path></svg>