<?xml version="1.0" standalone="no"?><!DOCTYPE svg PUBLIC "-//W3C//DTD SVG 1.1//EN" "http://www.w3.org/Graphics/SVG/1.1/DTD/svg11.dtd"><svg t="1548575320424" class="icon" style="" viewBox="0 0 1024 1024" version="1.1" xmlns="http://www.w3.org/2000/svg" p-id="10099" xmlns:xlink="http://www.w3.org/1999/xlink" width="128" height="128"><defs><style type="text/css"></style></defs><path d="M261.283306 278.655388C243.083715 263.735652 214.939304 264.990956 198.430798 281.480084 181.939876 297.969213 183.321704 323.452412 201.539912 338.408914 243.229552 372.643525 267.156076 421.650809 267.156076 472.836754 267.156076 523.949165 243.174733 572.993214 201.321674 607.339176 191.612674 615.297489 186.703873 626.228613 186.703873 637.215414 186.703873 646.854469 190.503901 656.567057 198.249794 664.285864 214.758299 680.758184 242.902711 682.013488 261.102301 667.055936 321.500408 617.440435 356.153686 546.662292 356.153686 472.836754 356.152655 398.919826 321.571777 328.142733 261.283306 278.655388L261.283306 278.655388 261.283306 278.655388ZM429.96877 145.851566C412.642132 130.064147 384.479103 129.971706 367.061445 145.685593 349.626204 161.344855 349.571386 186.918394 366.879407 202.687956 446.023217 274.795986 489.638728 370.72328 489.638728 472.835705 489.638728 574.764298 445.967364 670.673735 366.661169 742.910972 358.043359 750.758987 353.715837 761.044077 353.715837 771.310258 353.715837 781.651023 358.07956 792.029604 366.82459 799.876569 384.259831 815.590455 412.405277 815.516923 429.749498 799.728453 525.765888 712.313066 578.63634 596.203213 578.63634 472.835705 578.637375 349.266508 525.820707 233.137746 429.96877 145.851566L429.96877 145.851566 429.96877 145.851566ZM597.200005 12.421667C580.200206-3.625216 552.038212-4.160954 534.293714 11.258803 516.530599 26.677509 515.965869 52.196424 532.984287 68.243307 648.507626 177.337114 712.105866 321.015336 712.105866 472.818896 712.105866 624.327274 648.399024 767.950874 532.766049 877.267378 524.512314 885.059717 520.384411 895.104251 520.384411 905.149835 520.384411 915.730105 524.966372 926.329284 534.093059 934.250831 551.819973 949.650626 580.000586 949.097032 597.017967 933.03229 728.615406 808.647938 801.08486 645.229403 801.08486 472.836754 801.121061 300.11111 728.687807 136.619039 597.200005 12.421667L597.200005 12.421667 597.200005 12.421667Z" p-id="10100" fill="#ffffff"></path></svg>